<svg width="140" height="140" viewBox="0 0 140 140" fill="none" xmlns="http://www.w3.org/2000/svg">
<circle cx="69.9278" cy="69.9278" r="69.9278" fill="#171717" fill-opacity="0.5"/>
<path d="M34.873 108.966L27.0566 21.2979H112.944L105.119 108.953L69.9481 118.703L34.873 108.966Z" fill="#E44D26"/>
<path d="M70.0015 111.25L98.4218 103.371L105.108 28.4658H70.0015V111.25Z" fill="#F16529"/>
<path d="M69.9976 60.9803H55.7695L54.7867 49.9693H69.9976V39.2178H43.0359L43.2937 42.1021L45.9359 71.7326H69.9976V60.9803ZM69.9976 88.9045L69.95 88.9178L57.9757 85.6834L57.2109 77.1092H46.4164L47.9226 93.9912L69.9484 100.105L69.9976 100.092V88.9045Z" fill="#EBEBEB"/>
<path d="M69.9609 60.9803V71.7326H83.2008L81.9531 85.6772L69.9609 88.9139V100.101L92.0039 93.9912L92.1656 92.1748L94.6922 63.8678L94.9539 60.9803H92.057H69.9609ZM69.9609 39.2178V49.9693H95.9328L96.1484 47.5537L96.6391 42.1021L96.8961 39.2178H69.9609Z" fill="white"/>
</svg>
